<?xml version="1.0" encoding="UTF-8"?>
<svg width="1024" height="1024" viewBox="0 0 1024 1024" xmlns="http://www.w3.org/2000/svg" xmlns:xlink="http://www.w3.org/1999/xlink">
  <!-- прозрачный фон -->
  <rect width="100%" height="100%" fill="none"/>

  <!-- контур (чёрный) -->
  <g fill="none" stroke="#000000" stroke-width="40" stroke-linecap="round" stroke-linejoin="round">
    <!-- форма "колокола-кот" -->
    <path d="M192 560
             C192 480 240 448 272 384
             C304 320 304 240 352 208
             C392 184 472 176 512 176
             C552 176 632 184 672 208
             C720 240 720 320 752 384
             C784 448 832 480 832 560
             L192 560 Z" fill="#FF9A2E" stroke="#000"/>
    <!-- нижняя полоска колокола -->
    <path d="M832 560 H192" fill="none"/>
    <!-- язычок колокола -->
    <path d="M464 672
             a96 96 0 0 0 96 0
             v-48" fill="#FF9A2E" stroke="#000"/>
  </g>

  <!-- мордочка (глаза и нос/рот) -->
  <g fill="#000000">
    <!-- глаза -->
    <ellipse cx="416" cy="408" rx="20" ry="30"/>
    <ellipse cx="608" cy="408" rx="20" ry="30"/>
    <!-- нос + рот -->
    <path d="M512 456
             m-12 0
             a12 12 0 1 0 24 0
             a12 12 0 1 0 -24 0
             M500 488
             q12 18 24 0" stroke="#000" stroke-width="24" stroke-linecap="round" stroke-linejoin="round" fill="none"/>
  </g>

  <!-- "сигнальные" линии сверху -->
  <g stroke="#000" stroke-width="36" stroke-linecap="round">
    <line x1="512" y1="120" x2="512" y2="80"/>
    <line x1="440" y1="140" x2="404" y2="100"/>
    <line x1="584" y1="140" x2="620" y2="100"/>
  </g>

  <!-- тонкая чёрная обводка для язычка (чтобы выглядел аккуратно) -->
  <path d="M464 672
           a96 96 0 0 0 96 0
           v-48" fill="none" stroke="#000" stroke-width="12" stroke-linecap="round" stroke-linejoin="round"/>

</svg>
